<svg xmlns="http://www.w3.org/2000/svg" xmlns:xlink="http://www.w3.org/1999/xlink" width="600" height="600" viewBox="0 0 600 600" fill="none">
<path    stroke="rgba(0, 0, 0, 1)" stroke-width="12"    d="M145.999 181L315.999 181">
</path>
<path    stroke="rgba(0, 0, 0, 1)" stroke-width="12"    d="M303.269 181.612C313.833 179.216 358.755 182.869 373.209 204.739">
</path>
<path    stroke="rgba(0, 0, 0, 1)" stroke-width="12"    d="M368.226 198.885L450.774 292.115">
</path>
<path    stroke="rgba(0, 0, 0, 1)" stroke-width="12"    d="M146 395.115L316 395.115">
</path>
<path    stroke="rgba(0, 0, 0, 1)" stroke-width="12"    d="M303.27 394.502C313.834 396.899 358.756 393.246 373.21 371.375">
</path>
<path    stroke="rgba(0, 0, 0, 1)" stroke-width="12"    d="M368.227 377.23L450.775 284">
</path>
<path    stroke="rgba(0, 0, 0, 1)" stroke-width="12"    d="M149 179.5C188.3 212.65 273.5 295 149 397">
</path>
<path    stroke="rgba(0, 0, 0, 1)" stroke-width="12"    d="M42 326L152 326">
</path>
<path    stroke="rgba(0, 0, 0, 1)" stroke-width="12"    d="M42 246L152 246">
</path>
<path    stroke="rgba(0, 0, 0, 1)" stroke-width="12"    d="M97 181C136.3 214.15 221.5 296.5 97 398.5">
</path>
<ellipse cx="470.2452697753906" cy="286.0000305175781" rx="20.754730224609375" ry="20" stroke="rgba(0, 0, 0, 1)" stroke-width="12"      fill="#CCCCCC" fill-opacity="0">
</ellipse>
</svg>
