<svg xmlns="http://www.w3.org/2000/svg" xmlns:xlink="http://www.w3.org/1999/xlink" width="600" height="600" viewBox="0 0 600 600" fill="none">
<path     fill="#FFFFFF"  d="M0 600L600 600L600 0L0 0L0 600Z">
</path>
<rect x="143" y="174" width="227" height="227" stroke="rgba(0, 0, 0, 1)" stroke-width="12"      fill="#FFFFFF" >
</rect>
<g >
<path     fill="#000000"  d="M322.26 318.76C314.34 318.76 309.18 311.68 309.18 300.46C309.18 289.48 314.34 282.7 322.26 282.7C330.18 282.7 335.34 289.48 335.34 300.46C335.34 311.68 330.18 318.76 322.26 318.76ZM335.7 333.64C338.34 333.64 340.68 333.22 342 332.62L340.92 328.36C339.78 328.72 338.28 329.02 336.3 329.02C331.56 329.02 327.48 327.04 325.5 323.14C334.8 321.52 341.04 313.12 341.04 300.46C341.04 286.36 333.3 277.84 322.26 277.84C311.22 277.84 303.48 286.36 303.48 300.46C303.48 313.36 309.96 321.88 319.56 323.2C322.02 329.2 327.6 333.64 335.7 333.64ZM351.12 293.62L354.54 293.62L355.56 282.46L355.68 276.34L349.92 276.34L350.04 282.46L351.12 293.62Z">
</path>
</g>
<path    stroke="rgba(0, 0, 0, 1)" stroke-width="12"    d="M365 300L422 300">
</path>
</svg>
