<svg xmlns="http://www.w3.org/2000/svg" xmlns:xlink="http://www.w3.org/1999/xlink" width="600" height="600" viewBox="0 0 600 600" fill="none">
<path    stroke="rgba(0, 0, 0, 1)" stroke-width="12"    d="M218.999 361L318.999 361">
</path>
<path    stroke="rgba(0, 0, 0, 1)" stroke-width="12"    d="M313 261L313 361">
</path>
<path    stroke="rgba(0, 0, 0, 1)" stroke-width="12"    d="M223.65 362.58L183.982 308.585">
</path>
<path    stroke="rgba(0, 0, 0, 1)" stroke-width="12"    d="M313.062 362.579L313.062 262.579">
</path>
<path    stroke="rgba(0, 0, 0, 1)" stroke-width="12"    d="M219.061 262.579L319.061 262.579">
</path>
<path    stroke="rgba(0, 0, 0, 1)" stroke-width="12"    d="M223.71 261L184.042 314.995">
</path>
<g >
<path     fill="#000000"  d="M234.848 334.68L254.672 334.68L254.672 330.888L239.264 330.888L239.264 299.496L234.848 299.496L234.848 334.68ZM260.912 334.68L272.096 334.68C279.968 334.68 285.44 331.272 285.44 324.36C285.44 319.56 282.464 316.776 278.288 315.96L278.288 315.72C281.6 314.664 283.424 311.592 283.424 308.088C283.424 301.896 278.432 299.496 271.328 299.496L260.912 299.496L260.912 334.68ZM265.328 314.424L265.328 303L270.752 303C276.272 303 279.056 304.536 279.056 308.664C279.056 312.264 276.608 314.424 270.56 314.424L265.328 314.424ZM265.328 331.128L265.328 317.88L271.472 317.88C277.664 317.88 281.072 319.848 281.072 324.216C281.072 328.968 277.52 331.128 271.472 331.128L265.328 331.128Z">
</path>
</g>
</svg>
